# Blender 4.2.0 Alpha
# www.blender.org
o Mball.002
v 0.153968 0.541325 -0.052500
v 0.153968 0.528918 -0.069288
v 0.165253 0.528918 -0.052500
v 0.157615 0.528918 0.017500
v 0.169394 0.528918 -0.017500
v 0.153968 0.531719 0.017500
v 0.153968 0.544591 -0.017500
v 0.118968 0.548413 0.017500
v 0.118968 0.559613 -0.017500
v 0.118968 0.528918 -0.087484
v 0.083968 0.528918 -0.083978
v 0.153968 0.528918 0.025585
v 0.133846 0.528918 0.052500
v 0.118968 0.528918 0.062291
v 0.118968 0.535219 0.052500
v 0.083968 0.528918 0.085951
v 0.083968 0.563918 0.065891
v 0.091299 0.563918 0.052500
v 0.083968 0.573672 0.052500
v 0.083968 0.578468 0.017500
v 0.097289 0.563918 0.017500
v 0.083968 0.563918 -0.014265
v 0.048968 0.597579 0.052500
v 0.048968 0.598918 0.046726
v 0.052919 0.598918 0.017500
v 0.048968 0.600622 0.017500
v 0.048968 0.598918 0.011279
v 0.013968 0.599557 0.052500
v 0.013968 0.602873 0.017500
v 0.042555 0.598918 0.052500
v 0.013968 0.598918 0.053889
v 0.011871 0.598918 0.052500
v -0.021032 0.582568 0.052500
v 0.013968 0.575649 0.087500
v -0.006608 0.563918 0.087500
v -0.021032 0.563918 0.076449
v -0.021032 0.541559 0.087500
v 0.013968 0.563918 0.095402
v 0.013968 0.528918 0.104892
v -0.021032 0.528918 0.091625
v -0.021032 0.586497 0.017500
v 0.001528 0.598918 0.017500
v -0.056032 0.572400 0.017500
v -0.036995 0.563918 0.052500
v -0.056032 0.563918 0.040878
v -0.056032 0.555698 0.052500
v -0.091032 0.561968 0.052500
v -0.091032 0.563918 0.049766
v -0.126032 0.547962 0.052500
v -0.126032 0.563918 0.025948
v -0.126032 0.566838 0.017500
v -0.091032 0.578223 0.017500
v -0.126032 0.565412 -0.017500
v -0.091032 0.576333 -0.017500
v -0.130219 0.563918 0.017500
v -0.128347 0.563918 -0.017500
v -0.126032 0.563918 -0.021173
v -0.161032 0.540197 0.017500
v -0.149236 0.528918 0.052500
v -0.161032 0.528918 0.039639
v -0.174869 0.528918 0.017500
v -0.180383 0.528918 -0.017500
v -0.161032 0.542660 -0.017500
v -0.126032 0.528918 -0.076588
v -0.161032 0.528918 -0.057886
v -0.161032 0.531941 -0.052500
v -0.126032 0.547964 -0.052500
v -0.091032 0.528918 -0.077699
v -0.091032 0.556098 -0.052500
v -0.091032 0.563918 -0.042228
v -0.165967 0.528918 -0.052500
v -0.126032 0.528918 0.068190
v -0.091032 0.528918 0.077262
v -0.056032 0.528918 0.074193
v -0.026432 0.528918 0.087500
v 0.048968 0.572213 0.087500
v 0.048968 0.563918 0.093366
v 0.061059 0.563918 0.087500
v 0.048968 0.528918 0.103057
v 0.081518 0.528918 0.087500
v 0.013968 0.598918 0.004194
v 0.118968 0.556509 -0.052500
v 0.048968 0.542095 -0.052500
v 0.048968 0.528918 -0.069191
v 0.083968 0.551769 -0.052500
v 0.083968 0.562516 -0.017500
v 0.081268 0.563918 -0.017500
v 0.048968 0.563918 -0.036067
v 0.013968 0.537151 -0.052500
v 0.013968 0.563918 -0.037754
v -0.021032 0.529168 -0.052500
v -0.021032 0.563918 -0.019726
v -0.021032 0.528918 -0.052859
v 0.013968 0.528918 -0.060075
v -0.056032 0.547350 -0.052500
v -0.056032 0.528918 -0.068328
v 0.048968 0.584988 -0.017500
v 0.013968 0.587498 -0.017500
v -0.056032 0.570547 -0.017500
v -0.056032 0.563918 -0.031704
v -0.021032 0.566325 -0.017500
v 0.148628 0.533459 -0.049401
v 0.158150 0.522280 -0.050160
v 0.149707 0.521729 -0.063795
v 0.151208 0.521664 0.014985
v 0.162303 0.521909 -0.018265
v 0.148727 0.523689 0.014664
v 0.148433 0.536321 -0.018483
v 0.114385 0.539822 0.015224
v 0.116234 0.549996 -0.017698
v 0.118015 0.521011 -0.081436
v 0.085444 0.521022 -0.078022
v 0.149613 0.520452 0.022527
v 0.130175 0.520251 0.049122
v 0.115561 0.521012 0.057204
v 0.114124 0.527566 0.048261
v 0.077863 0.524506 0.079374
v 0.084209 0.557822 0.048955
v 0.077983 0.558385 0.060098
v 0.077578 0.566568 0.049552
v 0.091150 0.556033 0.017130
v 0.077530 0.570906 0.018669
v 0.078028 0.556577 -0.010975
v 0.045620 0.588887 0.048860
v 0.048015 0.590296 0.018764
v 0.045728 0.589515 0.045688
v 0.046728 0.590927 0.018490
v 0.046135 0.590019 0.014854
v 0.015239 0.589954 0.050016
v 0.015195 0.592996 0.018469
v 0.041937 0.589506 0.049180
v 0.015497 0.590430 0.048827
v 0.015563 0.590144 0.049437
v -0.015967 0.574726 0.048913
v 0.015495 0.568618 0.080555
v -0.015676 0.558053 0.070374
v -0.002329 0.559007 0.079913
v -0.016432 0.537750 0.079479
v 0.015445 0.526287 0.095358
v 0.015387 0.559863 0.086372
v -0.016475 0.526157 0.083163
v 0.005619 0.589896 0.018863
v -0.016788 0.577492 0.018443
v -0.055237 0.562475 0.016564
v -0.031732 0.556846 0.047780
v -0.055423 0.554989 0.036416
v -0.054305 0.548686 0.045583
v -0.090196 0.554526 0.045872
v -0.090151 0.555218 0.044916
v -0.122013 0.541025 0.046523
v -0.121690 0.555844 0.021953
v -0.121763 0.557915 0.016030
v -0.090301 0.568388 0.015846
v -0.090358 0.566656 -0.015072
v -0.121878 0.556564 -0.015387
v -0.122854 0.555735 -0.015806
v -0.124424 0.555953 0.015776
v -0.122288 0.555506 -0.017271
v -0.155123 0.532438 0.015287
v -0.155456 0.521679 0.035577
v -0.143949 0.522069 0.047487
v -0.168851 0.521175 0.015545
v -0.155490 0.534430 -0.016255
v -0.174532 0.520839 -0.016796
v -0.124082 0.521464 -0.070213
v -0.157323 0.521278 -0.052606
v -0.156489 0.523971 -0.048520
v -0.123177 0.539927 -0.047279
v -0.091073 0.548352 -0.046176
v -0.091387 0.521908 -0.070577
v -0.090617 0.555333 -0.037116
v -0.160691 0.520983 -0.049468
v -0.122811 0.523029 0.060778
v -0.090424 0.522797 0.069378
v -0.053943 0.523297 0.066190
v -0.021304 0.525010 0.079856
v 0.046697 0.559847 0.084519
v 0.046398 0.565347 0.080700
v 0.056122 0.559044 0.080299
v 0.046640 0.526330 0.093682
v 0.075937 0.525574 0.079907
v 0.015714 0.589896 0.008137
v 0.117412 0.547354 -0.048792
v 0.049751 0.534814 -0.045690
v 0.085339 0.542878 -0.048133
v 0.050888 0.521266 -0.063046
v 0.078518 0.555441 -0.012965
v 0.082399 0.552934 -0.015111
v 0.046824 0.557934 -0.028348
v 0.015468 0.530711 -0.044998
v 0.015446 0.557852 -0.029943
v -0.021565 0.522507 -0.045060
v -0.020385 0.556580 -0.012963
v 0.015409 0.521787 -0.053214
v -0.022011 0.522263 -0.045461
v -0.058466 0.540456 -0.045678
v -0.058436 0.522483 -0.061062
v 0.046297 0.577246 -0.011762
v 0.015801 0.579684 -0.011535
v -0.056806 0.561116 -0.014267
v -0.018926 0.558045 -0.012303
v -0.057983 0.555811 -0.026184
vn 0.5340 0.7866 -0.3099
vn 0.6434 0.0232 -0.7652
vn 0.9454 -0.0362 -0.3239
vn 0.9444 0.0506 0.3249
vn 0.9945 -0.0117 0.1037
vn 0.5242 0.8030 0.2836
vn 0.5535 0.8270 0.0983
vn 0.4584 0.8591 0.2276
vn 0.2735 0.9617 0.0198
vn 0.1731 0.0938 -0.9804
vn -0.2442 0.1135 -0.9631
vn 0.8501 0.1980 0.4881
vn 0.6804 0.2207 0.6988
vn 0.5232 0.0975 0.8466
vn 0.4844 0.7653 0.4239
vn 0.5378 -0.2567 0.8031
vn 0.5985 0.5534 0.5792
vn 0.7090 0.6096 0.3545
vn 0.6390 0.7105 0.2948
vn 0.6439 0.7562 -0.1169
vn 0.6139 0.7885 0.0370
vn 0.5940 0.7341 -0.3290
vn 0.3348 0.8692 0.3640
vn 0.3240 0.9404 0.1038
vn 0.4904 0.8623 -0.1264
vn 0.2240 0.9695 -0.0989
vn 0.2833 0.8899 -0.3575
vn -0.1271 0.9603 0.2484
vn -0.1227 0.9877 -0.0969
vn 0.0618 0.9413 0.3320
vn -0.1528 0.8488 0.5061
vn -0.3692 0.8774 0.3063
vn -0.5064 0.7841 0.3587
vn -0.1527 0.7031 0.6946
vn -0.4279 0.4912 0.7588
vn -0.5356 0.5866 0.6075
vn -0.4599 0.3809 0.8021
vn -0.1419 0.4056 0.9030
vn -0.1359 -0.4598 0.8776
vn -0.4009 -0.4462 0.8001
vn -0.4243 0.9006 -0.0943
vn -0.4091 0.9022 -0.1363
vn -0.0795 0.9924 0.0936
vn -0.5264 0.7072 0.4720
vn -0.0609 0.8929 0.4461
vn -0.1727 0.7012 0.6917
vn -0.0835 0.7442 0.6628
vn -0.0881 0.8701 0.4850
vn -0.4018 0.6937 0.5977
vn -0.4341 0.8074 0.3995
vn -0.4268 0.8923 0.1471
vn -0.0731 0.9835 0.1654
vn -0.4154 0.8848 -0.2113
vn -0.0673 0.9677 -0.2428
vn -0.5795 0.7965 0.1724
vn -0.5492 0.8183 -0.1693
vn -0.3743 0.8412 -0.3901
vn -0.5908 0.7758 0.2213
vn -0.6845 -0.0365 0.7281
vn -0.7955 0.0277 0.6054
vn -0.9381 0.0905 0.3345
vn -0.9853 0.1249 -0.1164
vn -0.5541 0.8231 -0.1245
vn -0.2735 0.0435 -0.9609
vn -0.5820 0.0796 -0.8093
vn -0.4542 0.7970 -0.3980
vn -0.2855 0.8037 -0.5221
vn 0.0855 -0.0086 -0.9963
vn 0.0041 0.7746 -0.6324
vn -0.0415 0.8585 -0.5112
vn -0.8413 0.1208 -0.5268
vn -0.3965 -0.1246 0.9095
vn -0.0784 -0.1267 0.9888
vn -0.1850 -0.2330 0.9547
vn -0.4570 -0.3885 0.8001
vn 0.2571 0.6866 0.6800
vn 0.2271 0.4072 0.8847
vn 0.4938 0.4875 0.7201
vn 0.2143 -0.4562 0.8637
vn 0.4375 -0.4009 0.8049
vn -0.1746 0.9022 -0.3943
vn 0.1557 0.9156 -0.3708
vn -0.0782 0.7281 -0.6810
vn -0.3164 0.0848 -0.9448
vn -0.1371 0.8891 -0.4367
vn 0.1569 0.9583 -0.2389
vn 0.2750 0.8477 -0.4535
vn 0.2145 0.5985 -0.7719
vn -0.1500 0.6440 -0.7502
vn -0.1477 0.6066 -0.7811
vn 0.0533 0.6661 -0.7440
vn -0.0647 0.7338 -0.6763
vn 0.1099 -0.0550 -0.9924
vn -0.2223 0.0134 -0.9749
vn 0.2435 0.6894 -0.6822
vn 0.3234 -0.0666 -0.9439
vn 0.2672 0.7742 -0.5738
vn -0.1833 0.7814 -0.5965
vn 0.0774 0.9431 -0.3233
vn 0.1951 0.8107 -0.5520
vn -0.2106 0.8280 -0.5197
vn -0.5376 -0.7844 0.3093
vn 0.0428 -0.9986 -0.0303
vn 0.1186 -0.9905 -0.0695
vn 0.0390 -0.9988 -0.0279
vn 0.0808 -0.9967 0.0021
vn -0.5273 -0.8007 -0.2844
vn -0.5591 -0.8227 -0.1031
vn -0.4563 -0.8610 -0.2248
vn -0.2703 -0.9625 -0.0222
vn 0.0633 -0.9730 -0.2221
vn -0.0475 -0.9832 -0.1760
vn 0.2798 -0.9570 0.0770
vn 0.1877 -0.9490 0.2532
vn 0.0066 -0.9967 0.0804
vn -0.4832 -0.7663 -0.4235
vn -0.2859 -0.9576 -0.0357
vn -0.7095 -0.6079 -0.3565
vn -0.6001 -0.5497 -0.5811
vn -0.6424 -0.7059 -0.2983
vn -0.6139 -0.7890 -0.0251
vn -0.6423 -0.7579 0.1146
vn -0.5156 -0.7959 0.3174
vn -0.3267 -0.8778 -0.3504
vn -0.5071 -0.8534 0.1207
vn -0.3191 -0.9431 -0.0930
vn -0.2696 -0.9557 0.1183
vn -0.2835 -0.8892 0.3592
vn 0.0675 -0.9751 0.2113
vn 0.1296 -0.9862 0.1027
vn -0.0492 -0.9441 -0.3261
vn -0.0029 -0.1230 -0.9924
vn 0.1921 -0.9323 -0.3066
vn 0.5070 -0.7813 -0.3640
vn 0.1555 -0.7003 -0.6967
vn 0.5345 -0.5848 -0.6101
vn 0.4304 -0.4898 -0.7582
vn 0.4560 -0.3849 -0.8024
vn 0.0643 -0.9076 -0.4149
vn 0.1444 -0.4030 -0.9037
vn 0.2449 -0.8929 -0.3777
vn 0.4104 -0.9020 0.1340
vn 0.4284 -0.8991 0.0901
vn 0.0719 -0.9929 -0.0945
vn 0.5241 -0.7065 -0.4756
vn 0.0661 -0.8879 -0.4553
vn 0.1719 -0.7030 -0.6901
vn 0.0918 -0.7486 -0.6566
vn 0.0899 -0.8720 -0.4813
vn 0.4024 -0.6926 -0.5987
vn 0.4389 -0.8038 -0.4016
vn 0.4513 -0.8790 -0.1539
vn 0.0758 -0.9828 -0.1683
vn 0.0682 -0.9662 0.2488
vn 0.4301 -0.8790 0.2056
vn 0.5589 -0.8083 0.1851
vn 0.5975 -0.7842 -0.1673
vn 0.3877 -0.8353 0.3898
vn 0.5916 -0.7750 -0.2221
vn -0.0389 -0.9977 0.0560
vn 0.0388 -0.9979 0.0517
vn -0.1653 -0.9822 0.0891
vn 0.5547 -0.8228 0.1240
vn -0.2556 -0.9664 -0.0271
vn -0.0195 -0.9883 -0.1510
vn -0.0927 -0.9882 -0.1223
vn 0.4518 -0.7990 0.3968
vn 0.2858 -0.8028 0.5233
vn -0.0024 -0.7749 0.6321
vn 0.0445 -0.9977 -0.0519
vn 0.0392 -0.8554 0.5164
vn -0.1688 -0.9752 -0.1429
vn 0.0258 -0.9977 -0.0626
vn 0.0036 -0.9982 -0.0596
vn 0.1157 -0.9527 -0.2810
vn 0.2631 -0.9195 -0.2922
vn -0.2319 -0.4084 -0.8829
vn -0.2591 -0.6836 -0.6824
vn -0.4965 -0.4886 -0.7175
vn -0.1020 -0.9064 -0.4099
vn -0.3819 -0.8668 -0.3206
vn 0.1718 -0.9021 0.3958
vn -0.1547 -0.9152 0.3723
vn 0.0737 -0.7335 0.6757
vn 0.1319 -0.8851 0.4463
vn -0.0312 -0.9987 -0.0413
vn -0.2641 -0.8408 0.4726
vn -0.1069 -0.9702 0.2176
vn -0.1972 -0.6063 0.7704
vn 0.1462 -0.6451 0.7500
vn 0.1469 -0.6050 0.7826
vn 0.0003 -0.6722 0.7404
vn 0.0075 -0.7563 0.6542
vn -0.0186 -0.9998 0.0033
vn -0.1175 -0.9730 0.1986
vn -0.2418 -0.6867 0.6856
vn -0.0015 -0.9990 0.0447
vn -0.2674 -0.7738 0.5743
vn 0.1800 -0.7809 0.5982
vn -0.0826 -0.9402 0.3305
vn 0.2655 -0.7908 0.5515
vn -0.1945 -0.8071 0.5574
s 1
f 3//3 2//2 1//1
f 4//4 5//5 7//7 6//6
f 6//6 7//7 9//9 8//8
f 5//5 3//3 1//1 7//7
f 12//12 4//4 6//6
f 14//14 13//13 15//15
f 15//15 18//18 17//17 16//16
f 14//14 15//15 16//16
f 17//17 18//18 19//19
f 18//18 21//21 20//20 19//19
f 21//21 22//22 20//20
f 20//20 25//25 24//24 23//23
f 19//19 20//20 23//23
f 24//24 25//25 26//26
f 25//25 27//27 26//26
f 24//24 26//26 29//29 28//28
f 30//30 24//24 28//28
f 31//31 30//30 28//28
f 32//32 31//31 28//28
f 34//34 31//31 32//32 33//33
f 36//36 35//35 34//34 33//33
f 35//35 36//36 37//37
f 39//39 38//38 35//35 37//37
f 40//40 39//39 37//37
f 32//32 42//42 41//41 33//33
f 44//44 33//33 41//41 43//43
f 45//45 44//44 43//43
f 44//44 45//45 46//46
f 46//46 45//45 48//48 47//47
f 47//47 48//48 50//50 49//49
f 50//50 48//48 52//52 51//51
f 52//52 54//54 53//53 51//51
f 53//53 56//56 55//55 51//51
f 57//57 56//56 53//53
f 55//55 50//50 51//51
f 49//49 50//50 55//55 58//58
f 60//60 59//59 49//49 58//58
f 61//61 60//60 58//58
f 63//63 62//62 61//61 58//58
f 67//67 64//64 65//65 66//66
f 69//69 68//68 64//64 67//67
f 57//57 70//70 69//69 67//67
f 65//65 71//71 66//66
f 66//66 71//71 62//62 63//63
f 48//48 45//45 43//43 52//52
f 35//35 38//38 34//34
f 38//38 77//77 76//76 34//34
f 77//77 78//78 76//76
f 80//80 78//78 77//77 79//79
f 29//29 42//42 32//32 28//28
f 81//81 42//42 29//29
f 24//24 30//30 23//23
f 8//8 21//21 18//18 15//15
f 1//1 2//2 10//10 82//82
f 7//7 1//1 82//82 9//9
f 12//12 6//6 8//8 15//15
f 13//13 12//12 15//15
f 85//85 11//11 84//84 83//83
f 87//87 86//86 85//85 83//83
f 88//88 87//87 83//83
f 87//87 22//22 86//86
f 90//90 88//88 83//83 89//89
f 92//92 90//90 89//89 91//91
f 89//89 94//94 93//93 91//91
f 91//91 93//93 96//96 95//95
f 87//87 88//88 97//97
f 82//82 10//10 11//11 85//85
f 20//20 22//22 87//87 97//97
f 27//27 25//25 20//20 97//97
f 81//81 27//27 97//97 98//98
f 17//17 19//19 23//23 76//76
f 78//78 17//17 76//76
f 17//17 78//78 80//80 16//16
f 97//97 88//88 90//90 98//98
f 83//83 84//84 94//94 89//89
f 23//23 30//30 31//31 34//34
f 76//76 23//23 34//34
f 79//79 77//77 38//38 39//39
f 101//101 92//92 100//100 99//99
f 95//95 96//96 68//68 69//69
f 41//41 101//101 99//99 43//43
f 44//44 36//36 33//33
f 9//9 82//82 85//85 86//86
f 99//99 100//100 70//70 54//54
f 75//75 40//40 37//37
f 21//21 8//8 9//9 86//86
f 22//22 21//21 86//86
f 81//81 98//98 101//101 41//41
f 42//42 81//81 41//41
f 100//100 92//92 91//91 95//95
f 26//26 27//27 81//81 29//29
f 70//70 100//100 95//95 69//69
f 43//43 99//99 54//54 52//52
f 73//73 74//74 46//46 47//47
f 57//57 67//67 66//66 63//63
f 56//56 57//57 63//63
f 55//55 56//56 63//63 58//58
f 59//59 72//72 49//49
f 98//98 90//90 92//92 101//101
f 37//37 36//36 44//44 46//46
f 74//74 75//75 37//37 46//46
f 54//54 70//70 57//57 53//53
f 72//72 73//73 47//47 49//49
f 103//103 102//102 104//104
f 105//105 107//107 108//108 106//106
f 107//107 109//109 110//110 108//108
f 106//106 108//108 102//102 103//103
f 113//113 107//107 105//105
f 115//115 116//116 114//114
f 116//116 117//117 119//119 118//118
f 115//115 117//117 116//116
f 119//119 120//120 118//118
f 118//118 120//120 122//122 121//121
f 121//121 122//122 123//123
f 122//122 124//124 126//126 125//125
f 120//120 124//124 122//122
f 126//126 127//127 125//125
f 125//125 127//127 128//128
f 126//126 129//129 130//130 127//127
f 131//131 129//129 126//126
f 132//132 129//129 131//131
f 133//133 129//129 132//132
f 135//135 134//134 133//133 132//132
f 136//136 134//134 135//135 137//137
f 137//137 138//138 136//136
f 139//139 138//138 137//137 140//140
f 141//141 138//138 139//139
f 133//133 134//134 143//143 142//142
f 145//145 144//144 143//143 134//134
f 146//146 144//144 145//145
f 145//145 147//147 146//146
f 147//147 148//148 149//149 146//146
f 148//148 150//150 151//151 149//149
f 151//151 152//152 153//153 149//149
f 153//153 152//152 155//155 154//154
f 155//155 152//152 157//157 156//156
f 158//158 155//155 156//156
f 157//157 152//152 151//151
f 150//150 159//159 157//157 151//151
f 160//160 159//159 150//150 161//161
f 162//162 159//159 160//160
f 163//163 159//159 162//162 164//164
f 168//168 167//167 166//166 165//165
f 169//169 168//168 165//165 170//170
f 158//158 168//168 169//169 171//171
f 166//166 167//167 172//172
f 167//167 163//163 164//164 172//172
f 149//149 153//153 144//144 146//146
f 137//137 135//135 140//140
f 140//140 135//135 178//178 177//177
f 177//177 178//178 179//179
f 181//181 180//180 177//177 179//179
f 130//130 129//129 133//133 142//142
f 182//182 130//130 142//142
f 126//126 124//124 131//131
f 109//109 116//116 118//118 121//121
f 102//102 183//183 111//111 104//104
f 108//108 110//110 183//183 102//102
f 113//113 116//116 109//109 107//107
f 114//114 116//116 113//113
f 185//185 184//184 186//186 112//112
f 187//187 184//184 185//185 188//188
f 189//189 184//184 187//187
f 187//187 188//188 123//123
f 191//191 190//190 184//184 189//189
f 193//193 192//192 190//190 191//191
f 190//190 192//192 195//195 194//194
f 192//192 196//196 197//197 195//195
f 187//187 198//198 189//189
f 183//183 185//185 112//112 111//111
f 122//122 198//198 187//187 123//123
f 128//128 198//198 122//122 125//125
f 182//182 199//199 198//198 128//128
f 119//119 178//178 124//124 120//120
f 179//179 178//178 119//119
f 119//119 117//117 181//181 179//179
f 198//198 199//199 191//191 189//189
f 184//184 190//190 194//194 186//186
f 124//124 135//135 132//132 131//131
f 178//178 135//135 124//124
f 180//180 139//139 140//140 177//177
f 201//201 200//200 202//202 193//193
f 196//196 169//169 170//170 197//197
f 143//143 144//144 200//200 201//201
f 145//145 134//134 136//136
f 110//110 188//188 185//185 183//183
f 200//200 154//154 171//171 202//202
f 176//176 138//138 141//141
f 121//121 188//188 110//110 109//109
f 123//123 188//188 121//121
f 182//182 143//143 201//201 199//199
f 142//142 143//143 182//182
f 202//202 196//196 192//192 193//193
f 127//127 130//130 182//182 128//128
f 171//171 169//169 196//196 202//202
f 144//144 153//153 154//154 200//200
f 174//174 148//148 147//147 175//175
f 158//158 163//163 167//167 168//168
f 156//156 163//163 158//158
f 157//157 159//159 163//163 156//156
f 161//161 150//150 173//173
f 199//199 201//201 193//193 191//191
f 138//138 147//147 145//145 136//136
f 175//175 147//147 138//138 176//176
f 154//154 155//155 158//158 171//171
f 173//173 150//150 148//148 174//174
f 12//12 113//113 105//105 4//4
f 13//13 114//114 113//113 12//12
f 39//39 139//139 180//180 79//79
f 4//4 105//105 106//106 5//5
f 61//61 162//162 160//160 60//60
f 14//14 115//115 114//114 13//13
f 65//65 166//166 172//172 71//71
f 79//79 180//180 181//181 80//80
f 72//72 173//173 174//174 73//73
f 62//62 164//164 162//162 61//61
f 73//73 174//174 175//175 74//74
f 11//11 112//112 186//186 84//84
f 64//64 165//165 166//166 65//65
f 74//74 175//175 176//176 75//75
f 40//40 141//141 139//139 39//39
f 96//96 197//197 170//170 68//68
f 75//75 176//176 141//141 40//40
f 94//94 194//194 195//195 93//93
f 2//2 104//104 111//111 10//10
f 16//16 117//117 115//115 14//14
f 71//71 172//172 164//164 62//62
f 10//10 111//111 112//112 11//11
f 5//5 106//106 103//103 3//3
f 80//80 181//181 117//117 16//16
f 59//59 161//161 173//173 72//72
f 93//93 195//195 197//197 96//96
f 68//68 170//170 165//165 64//64
f 60//60 160//160 161//161 59//59
f 84//84 186//186 194//194 94//94
f 3//3 103//103 104//104 2//2
