# Blender 4.2.0 Alpha
# www.blender.org
o Sphere
v 0.192113 0.197259 -0.033686
v 0.193849 0.182684 -0.036360
v 0.188418 0.169048 -0.033686
v 0.195696 0.196789 -0.027231
v 0.198917 0.182020 -0.027231
v 0.192002 0.168579 -0.027231
v 0.192113 0.197259 -0.020776
v 0.193849 0.182684 -0.018102
v 0.188418 0.169048 -0.020776
v 0.183461 0.198392 -0.018102
v 0.181614 0.184287 -0.014320
v 0.179766 0.170181 -0.018102
v 0.174809 0.199525 -0.020776
v 0.169378 0.185889 -0.018102
v 0.171114 0.171315 -0.020776
v 0.179001 0.164339 -0.027231
v 0.171225 0.199994 -0.027231
v 0.164310 0.186553 -0.027231
v 0.167531 0.171784 -0.027231
v 0.174809 0.199525 -0.033686
v 0.169378 0.185889 -0.036360
v 0.171114 0.171315 -0.033686
v 0.184226 0.204234 -0.027231
v 0.183461 0.198392 -0.036360
v 0.181614 0.184287 -0.040142
v 0.179766 0.170181 -0.036360
v 0.170833 0.141859 -0.037810
v 0.172357 0.129071 -0.040156
v 0.167591 0.117106 -0.037810
v 0.173977 0.141447 -0.032146
v 0.176804 0.128488 -0.032146
v 0.170736 0.116694 -0.032146
v 0.170833 0.141859 -0.026482
v 0.172357 0.129071 -0.024135
v 0.167591 0.117106 -0.026482
v 0.163241 0.142853 -0.024135
v 0.161620 0.130477 -0.020817
v 0.160000 0.118100 -0.024135
v 0.155650 0.143848 -0.026482
v 0.150884 0.131883 -0.024135
v 0.152408 0.119094 -0.026482
v 0.159328 0.112974 -0.032146
v 0.152505 0.144259 -0.032146
v 0.146437 0.132465 -0.032146
v 0.149263 0.119506 -0.032146
v 0.155650 0.143848 -0.037810
v 0.150884 0.131883 -0.040156
v 0.152408 0.119094 -0.037810
v 0.163913 0.147980 -0.032146
v 0.163241 0.142853 -0.040156
v 0.161620 0.130477 -0.043474
v 0.160000 0.118100 -0.040156
vn 0.5781 0.5174 -0.6309
vn 0.6351 -0.0832 -0.7679
vn 0.4254 -0.6488 -0.6309
vn 0.8609 0.5089 -0.0000
vn 0.9915 -0.1299 -0.0000
vn 0.7008 -0.7134 -0.0000
vn 0.5781 0.5174 0.6309
vn 0.6351 -0.0832 0.7679
vn 0.4254 -0.6488 0.6309
vn 0.0725 0.5533 0.8298
vn -0.0000 -0.0000 1.0000
vn -0.0725 -0.5533 0.8298
vn -0.4254 0.6488 0.6309
vn -0.6351 0.0832 0.7679
vn -0.5781 -0.5174 0.6309
vn -0.1299 -0.9915 -0.0000
vn -0.7008 0.7134 -0.0000
vn -0.9915 0.1299 -0.0000
vn -0.8609 -0.5089 -0.0000
vn -0.4254 0.6488 -0.6309
vn -0.6351 0.0832 -0.7679
vn -0.5781 -0.5174 -0.6309
vn 0.1299 0.9915 -0.0000
vn 0.0725 0.5533 -0.8298
vn -0.0000 -0.0000 -1.0000
vn -0.0725 -0.5533 -0.8298
vt 0.687500 0.000000
vt 0.750000 0.250000
vt 0.625000 0.250000
vt 0.750000 0.500000
vt 0.750000 0.750000
vt 0.625000 0.750000
vt 0.625000 0.500000
vt 0.687500 1.000000
vt 0.500000 0.750000
vt 0.500000 0.500000
vt 0.500000 0.250000
vt 0.562500 1.000000
vt 0.562500 0.000000
vt 0.437500 0.000000
vt 0.375000 0.250000
vt 0.375000 0.750000
vt 0.375000 0.500000
vt 0.437500 1.000000
vt 0.312500 0.000000
vt 0.250000 0.250000
vt 0.250000 0.750000
vt 0.250000 0.500000
vt 0.312500 1.000000
vt 0.187500 0.000000
vt 0.125000 0.250000
vt 0.125000 0.750000
vt 0.125000 0.500000
vt 0.187500 1.000000
vt 0.062500 0.000000
vt 0.000000 0.250000
vt 0.000000 0.750000
vt 0.000000 0.500000
vt 0.062500 1.000000
vt 1.000000 0.750000
vt 0.937500 1.000000
vt 0.875000 0.750000
vt 0.937500 0.000000
vt 1.000000 0.250000
vt 0.875000 0.250000
vt 1.000000 0.500000
vt 0.875000 0.500000
vt 0.812500 1.000000
vt 0.812500 0.000000
s 1
f 16/1/16 26/2/26 3/3/3
f 25/4/25 24/5/24 1/6/1 2/7/2
f 26/2/26 25/4/25 2/7/2 3/3/3
f 24/5/24 23/8/23 1/6/1
f 2/7/2 1/6/1 4/9/4 5/10/5
f 3/3/3 2/7/2 5/10/5 6/11/6
f 1/6/1 23/12/23 4/9/4
f 16/13/16 3/3/3 6/11/6
f 16/14/16 6/11/6 9/15/9
f 5/10/5 4/9/4 7/16/7 8/17/8
f 6/11/6 5/10/5 8/17/8 9/15/9
f 4/9/4 23/18/23 7/16/7
f 16/19/16 9/15/9 12/20/12
f 8/17/8 7/16/7 10/21/10 11/22/11
f 9/15/9 8/17/8 11/22/11 12/20/12
f 7/16/7 23/23/23 10/21/10
f 16/24/16 12/20/12 15/25/15
f 11/22/11 10/21/10 13/26/13 14/27/14
f 12/20/12 11/22/11 14/27/14 15/25/15
f 10/21/10 23/28/23 13/26/13
f 16/29/16 15/25/15 19/30/19
f 14/27/14 13/26/13 17/31/17 18/32/18
f 15/25/15 14/27/14 18/32/18 19/30/19
f 13/26/13 23/33/23 17/31/17
f 17/34/17 23/35/23 20/36/20
f 16/37/16 19/38/19 22/39/22
f 18/40/18 17/34/17 20/36/20 21/41/21
f 19/38/19 18/40/18 21/41/21 22/39/22
f 22/39/22 21/41/21 25/4/25 26/2/26
f 20/36/20 23/42/23 24/5/24
f 16/43/16 22/39/22 26/2/26
f 21/41/21 20/36/20 24/5/24 25/4/25
f 42/1/16 52/2/26 29/3/3
f 51/4/25 50/5/24 27/6/1 28/7/2
f 52/2/26 51/4/25 28/7/2 29/3/3
f 50/5/24 49/8/23 27/6/1
f 28/7/2 27/6/1 30/9/4 31/10/5
f 29/3/3 28/7/2 31/10/5 32/11/6
f 27/6/1 49/12/23 30/9/4
f 42/13/16 29/3/3 32/11/6
f 42/14/16 32/11/6 35/15/9
f 31/10/5 30/9/4 33/16/7 34/17/8
f 32/11/6 31/10/5 34/17/8 35/15/9
f 30/9/4 49/18/23 33/16/7
f 42/19/16 35/15/9 38/20/12
f 34/17/8 33/16/7 36/21/10 37/22/11
f 35/15/9 34/17/8 37/22/11 38/20/12
f 33/16/7 49/23/23 36/21/10
f 42/24/16 38/20/12 41/25/15
f 37/22/11 36/21/10 39/26/13 40/27/14
f 38/20/12 37/22/11 40/27/14 41/25/15
f 36/21/10 49/28/23 39/26/13
f 42/29/16 41/25/15 45/30/19
f 40/27/14 39/26/13 43/31/17 44/32/18
f 41/25/15 40/27/14 44/32/18 45/30/19
f 39/26/13 49/33/23 43/31/17
f 43/34/17 49/35/23 46/36/20
f 42/37/16 45/38/19 48/39/22
f 44/40/18 43/34/17 46/36/20 47/41/21
f 45/38/19 44/40/18 47/41/21 48/39/22
f 48/39/22 47/41/21 51/4/25 52/2/26
f 46/36/20 49/42/23 50/5/24
f 42/43/16 48/39/22 52/2/26
f 47/41/21 46/36/20 50/5/24 51/4/25
