# Blender 4.2.0 Alpha
# www.blender.org
o hand
v -0.103717 0.005027 -0.000000
v -0.116152 0.001323 -0.000000
v -0.122779 -0.010799 0.000000
v -0.120612 -0.041907 0.000000
v -0.128783 -0.066577 0.000000
v -0.131120 -0.088097 0.000000
v -0.126623 -0.119620 0.000000
v -0.110729 -0.139411 0.000000
v -0.090213 -0.149000 0.000000
v -0.064823 -0.150891 0.000000
v -0.028335 -0.144216 0.000000
v -0.016716 -0.133786 0.000000
v -0.007144 -0.084402 0.000000
v 0.034382 -0.074001 0.000000
v 0.042520 -0.062902 0.000000
v 0.041785 -0.046655 0.000000
v 0.033511 -0.037803 0.000000
v 0.022490 -0.035454 0.000000
v -0.070570 -0.045619 0.000000
v -0.075746 -0.017972 0.000000
v -0.082021 -0.004762 0.000000
v -0.092840 0.002774 -0.000000
v -0.103717 0.005027 -0.000000
v -0.103717 0.005027 0.027350
v -0.116152 0.001323 0.027350
v -0.122779 -0.010799 0.027350
v -0.120612 -0.041907 0.027350
v -0.128783 -0.066577 0.027350
v -0.131120 -0.088097 0.027350
v -0.126623 -0.119620 0.027350
v -0.110729 -0.139411 0.027350
v -0.090213 -0.149000 0.027350
v -0.064823 -0.150891 0.027350
v -0.028335 -0.144216 0.027350
v -0.016716 -0.133786 0.027350
v -0.007144 -0.084402 0.027350
v 0.034382 -0.074001 0.027350
v 0.042520 -0.062902 0.027350
v 0.041785 -0.046655 0.027350
v 0.033511 -0.037803 0.027350
v 0.022490 -0.035454 0.027350
v -0.070570 -0.045619 0.027350
v -0.075746 -0.017972 0.027350
v -0.082021 -0.004762 0.027350
v -0.092840 0.002774 0.027350
v -0.103717 0.005027 0.027350
v -0.067696 -0.098255 0.027350
v -0.018544 -0.063702 0.027350
v -0.039005 -0.116466 0.027350
v -0.096197 -0.075629 0.027350
v -0.096197 -0.075629 0.000000
v -0.023847 -0.083945 0.000000
vn 0.8065 -0.5913 -0.0000
vn -0.7797 -0.6262 -0.0000
vn 0.2028 0.9792 -0.0000
vn 0.9990 0.0452 -0.0000
vn -0.4234 -0.9059 -0.0000
vn -0.2855 0.9584 -0.0000
vn 0.7306 0.6828 -0.0000
vn -0.0743 -0.9972 -0.0000
vn -0.8774 0.4797 -0.0000
vn 0.2084 0.9780 -0.0000
vn 0.1800 -0.9837 -0.0000
vn -0.9976 -0.0695 -0.0000
vn -0.1086 0.9941 -0.0000
vn 0.6680 -0.7442 -0.0000
vn -0.9493 0.3144 -0.0000
vn 0.9829 0.1840 -0.0000
vn 0.9817 -0.1903 -0.0000
vn -0.9942 0.1079 -0.0000
vn 0.9033 0.4291 -0.0000
vn 0.2430 -0.9700 -0.0000
vn -0.9900 -0.1412 -0.0000
vn 0.5716 0.8205 -0.0000
vn -0.0000 -0.0000 1.0000
vn -0.0000 -0.0000 -1.0000
vn -0.0000 1.0000 -0.0000
s 0
f 14//1 15//1 38//1 37//1
f 7//2 8//2 31//2 30//2
f 22//3 23//3 46//3 45//3
f 15//4 16//4 39//4 38//4
f 8//5 9//5 32//5 31//5
f 1//6 2//6 25//6 24//6
f 16//7 17//7 40//7 39//7
f 9//8 10//8 33//8 32//8
f 2//9 3//9 26//9 25//9
f 17//10 18//10 41//10 40//10
f 10//11 11//11 34//11 33//11
f 3//12 4//12 27//12 26//12
f 18//13 19//13 42//13 41//13
f 11//14 12//14 35//14 34//14
f 4//15 5//15 28//15 27//15
f 19//16 20//16 43//16 42//16
f 12//17 13//17 36//17 35//17
f 5//18 6//18 29//18 28//18
f 20//19 21//19 44//19 43//19
f 13//20 14//20 37//20 36//20
f 6//21 7//21 30//21 29//21
f 21//22 22//22 45//22 44//22
f 33//23 34//23 49//23
f 24//23 25//23 50//23
f 10//24 19//24 52//24
f 36//23 37//23 48//23
f 37//23 38//23 48//23
f 38//23 39//23 48//23
f 39//23 40//23 48//23
f 40//23 41//23 48//23
f 41//23 42//23 48//23
f 42//23 47//23 48//23
f 47//23 36//23 48//23
f 34//23 35//23 49//23
f 35//23 36//23 49//23
f 36//23 47//23 49//23
f 47//23 33//23 49//23
f 25//23 26//23 50//23
f 26//23 27//23 50//23
f 27//23 28//23 50//23
f 28//23 29//23 50//23
f 29//23 30//23 50//23
f 30//23 31//23 50//23
f 31//23 32//23 50//23
f 32//23 33//23 50//23
f 33//23 47//23 50//23
f 47//23 42//23 50//23
f 42//23 43//23 50//23
f 43//23 44//23 50//23
f 44//23 45//23 50//23
f 45//23 46//23 50//23
f 46//25 24//25 50//25
f 2//24 23//24 51//24
f 23//24 22//24 51//24
f 22//24 21//24 51//24
f 21//24 20//24 51//24
f 20//24 19//24 51//24
f 19//24 10//24 51//24
f 10//24 9//24 51//24
f 9//24 8//24 51//24
f 8//24 7//24 51//24
f 7//24 6//24 51//24
f 6//24 5//24 51//24
f 5//24 4//24 51//24
f 4//24 3//24 51//24
f 3//24 2//24 51//24
f 19//24 18//24 52//24
f 18//24 17//24 52//24
f 17//24 16//24 52//24
f 16//24 15//24 52//24
f 15//24 14//24 52//24
f 14//24 13//24 52//24
f 13//24 12//24 52//24
f 12//24 11//24 52//24
f 11//24 10//24 52//24
l 1 23
