# Blender 4.2.0 Alpha
# www.blender.org
o eyes
v -0.048154 0.053710 -0.000000
v -0.058578 0.059998 -0.000000
v -0.062501 0.069157 -0.000000
v -0.062706 0.076465 -0.000000
v -0.057023 0.089195 -0.000000
v -0.049056 0.094261 -0.000000
v -0.042862 0.094721 -0.000000
v -0.032439 0.088433 -0.000000
v -0.028516 0.079274 -0.000000
v -0.028310 0.071967 -0.000000
v -0.030357 0.064922 -0.000000
v -0.036482 0.057034 -0.000000
v -0.048154 0.053710 -0.000000
v 0.062971 0.060590 -0.000000
v 0.061560 0.066254 -0.000000
v 0.035209 0.076288 -0.000000
v 0.030643 0.070948 -0.000000
v 0.028309 0.061803 -0.000000
v 0.029590 0.052606 -0.000000
v 0.032786 0.046531 -0.000000
v 0.040221 0.040576 -0.000000
v 0.046302 0.039423 -0.000000
v 0.052171 0.040753 -0.000000
v 0.059177 0.046972 -0.000000
v 0.062971 0.060590 -0.000000
v -0.048154 0.053710 0.009701
v -0.058578 0.059998 0.009701
v -0.062501 0.069157 0.009701
v -0.062706 0.076465 0.009701
v -0.057023 0.089195 0.009701
v -0.049056 0.094261 0.009701
v -0.042862 0.094721 0.009701
v -0.032439 0.088433 0.009701
v -0.028516 0.079274 0.009701
v -0.028310 0.071967 0.009701
v -0.030357 0.064922 0.009701
v -0.036482 0.057034 0.009701
v -0.048154 0.053710 0.009701
v 0.062971 0.060590 0.009701
v 0.061560 0.066254 0.009701
v 0.035209 0.076288 0.009701
v 0.030643 0.070948 0.009701
v 0.028309 0.061803 0.009701
v 0.029590 0.052606 0.009701
v 0.032786 0.046531 0.009701
v 0.040221 0.040576 0.009701
v 0.046302 0.039423 0.009701
v 0.052171 0.040753 0.009701
v 0.059177 0.046972 0.009701
v 0.062971 0.060590 0.009701
v -0.045474 0.074285 0.009701
v 0.044839 0.057825 0.009701
v -0.045474 0.074285 -0.000000
v 0.044839 0.057825 -0.000000
vn 0.2210 -0.9753 -0.0000
vn 0.3559 0.9345 -0.0000
vn 0.5165 0.8563 -0.0000
vn 0.6638 -0.7479 -0.0000
vn -0.7600 0.6499 -0.0000
vn 0.9192 0.3937 -0.0000
vn 0.9633 -0.2684 -0.0000
vn -0.5165 -0.8563 -0.0000
vn -0.9689 0.2473 -0.0000
vn 0.9996 0.0281 -0.0000
vn -0.9192 -0.3937 -0.0000
vn -0.9904 -0.1380 -0.0000
vn 0.9603 -0.2790 -0.0000
vn -0.9996 -0.0281 -0.0000
vn -0.8850 -0.4656 -0.0000
vn 0.7899 -0.6133 -0.0000
vn -0.9131 0.4077 -0.0000
vn -0.6252 -0.7805 -0.0000
vn 0.2738 -0.9618 -0.0000
vn -0.5366 0.8438 -0.0000
vn -0.1863 -0.9825 -0.0000
vn 0.9703 0.2417 -0.0000
vn -0.0740 0.9973 -0.0000
vn -0.0000 -0.0000 1.0000
vn -0.0000 1.0000 -0.0000
vn -0.0000 -0.0000 -1.0000
s 0
f 22//1 23//1 48//1 47//1
f 15//2 16//2 41//2 40//2
f 7//3 32//3 33//3 8//3
f 23//4 24//4 49//4 48//4
f 16//5 17//5 42//5 41//5
f 8//6 33//6 34//6 9//6
f 24//7 25//7 50//7 49//7
f 1//8 26//8 27//8 2//8
f 17//9 18//9 43//9 42//9
f 9//10 34//10 35//10 10//10
f 2//11 27//11 28//11 3//11
f 18//12 19//12 44//12 43//12
f 10//13 35//13 36//13 11//13
f 3//14 28//14 29//14 4//14
f 19//15 20//15 45//15 44//15
f 11//16 36//16 37//16 12//16
f 4//17 29//17 30//17 5//17
f 20//18 21//18 46//18 45//18
f 12//19 37//19 38//19 13//19
f 5//20 30//20 31//20 6//20
f 21//21 22//21 47//21 46//21
f 14//22 15//22 40//22 39//22
f 6//23 31//23 32//23 7//23
f 39//24 40//24 52//24
f 26//24 51//24 27//24
f 27//24 51//24 28//24
f 28//24 51//24 29//24
f 29//24 51//24 30//24
f 30//24 51//24 31//24
f 31//24 51//24 32//24
f 32//24 51//24 33//24
f 33//24 51//24 34//24
f 34//24 51//24 35//24
f 35//24 51//24 36//24
f 36//24 51//24 37//24
f 37//24 51//24 38//24
f 38//25 51//25 26//25
f 40//24 41//24 52//24
f 41//24 42//24 52//24
f 42//24 43//24 52//24
f 43//24 44//24 52//24
f 44//24 45//24 52//24
f 45//24 46//24 52//24
f 46//24 47//24 52//24
f 47//24 48//24 52//24
f 48//24 49//24 52//24
f 49//24 50//24 52//24
f 50//25 39//25 52//25
f 1//25 53//25 13//25
f 13//26 53//26 12//26
f 12//26 53//26 11//26
f 11//26 53//26 10//26
f 10//26 53//26 9//26
f 9//26 53//26 8//26
f 8//26 53//26 7//26
f 7//26 53//26 6//26
f 6//26 53//26 5//26
f 5//26 53//26 4//26
f 4//26 53//26 3//26
f 3//26 53//26 2//26
f 2//26 53//26 1//26
f 14//25 25//25 54//25
f 25//26 24//26 54//26
f 24//26 23//26 54//26
f 23//26 22//26 54//26
f 22//26 21//26 54//26
f 21//26 20//26 54//26
f 20//26 19//26 54//26
f 19//26 18//26 54//26
f 18//26 17//26 54//26
f 17//26 16//26 54//26
f 16//26 15//26 54//26
f 15//26 14//26 54//26
