# Blender 4.2.0 Alpha
# www.blender.org
o head
v 0.000000 0.151077 -0.000000
v -0.079868 0.129508 -0.000000
v -0.125730 0.078088 -0.000000
v -0.147010 0.016747 -0.000000
v -0.153458 -0.050271 0.000000
v -0.143848 -0.071329 0.000000
v -0.117339 -0.089146 0.000000
v -0.053512 -0.106824 0.000000
v 0.027562 -0.109625 0.000000
v 0.117339 -0.089146 0.000000
v 0.150983 -0.061120 0.000000
v 0.147010 0.016747 -0.000000
v 0.106460 0.106284 -0.000000
v 0.044774 0.145270 -0.000000
v 0.000000 0.151077 -0.000000
v 0.000000 0.151077 -0.053924
v -0.079868 0.129508 -0.053924
v -0.125730 0.078088 -0.053924
v -0.147010 0.016747 -0.053924
v -0.153458 -0.050271 -0.053924
v -0.143848 -0.071329 -0.053924
v -0.117339 -0.089146 -0.053924
v -0.053512 -0.106824 -0.053924
v 0.027562 -0.109625 -0.053924
v 0.117339 -0.089146 -0.053924
v 0.150983 -0.061120 -0.053924
v 0.147010 0.016747 -0.053924
v 0.106460 0.106284 -0.053924
v 0.044774 0.145270 -0.053924
v 0.000000 0.151077 -0.053924
vn -0.0000 -0.0000 1.0000
vn -0.0000 -0.0000 -1.0000
vn 0.1286 0.9917 -0.0000
vn -0.2669 -0.9637 -0.0000
vn -0.0000 1.0000 -0.0000
vn -0.0345 -0.9994 -0.0000
vn -0.2607 0.9654 -0.0000
vn 0.2224 -0.9750 -0.0000
vn -0.7463 0.6656 -0.0000
vn 0.6400 -0.7683 -0.0000
vn -0.9448 0.3278 -0.0000
vn 0.9987 0.0510 -0.0000
vn -0.9954 0.0958 -0.0000
vn 0.9109 0.4125 -0.0000
vn -0.9097 -0.4152 -0.0000
vn 0.5342 0.8453 -0.0000
vn -0.5578 -0.8300 -0.0000
s 0
f 2//1 3//1 4//1 5//1 6//1 7//1 8//1 9//1 10//1 11//1 12//1 13//1 14//1 15//1 1//1
f 17//2 16//2 30//2 29//2 28//2 27//2 26//2 25//2 24//2 23//2 22//2 21//2 20//2 19//2 18//2
f 15//3 14//3 29//3 30//3
f 8//4 7//4 22//4 23//4
f 1//5 15//5 30//5 16//5
f 9//6 8//6 23//6 24//6
f 2//7 1//7 16//7 17//7
f 10//8 9//8 24//8 25//8
f 3//9 2//9 17//9 18//9
f 11//10 10//10 25//10 26//10
f 4//11 3//11 18//11 19//11
f 12//12 11//12 26//12 27//12
f 5//13 4//13 19//13 20//13
f 13//14 12//14 27//14 28//14
f 6//15 5//15 20//15 21//15
f 14//16 13//16 28//16 29//16
f 7//17 6//17 21//17 22//17
