# Blender 4.2.0 Alpha
# www.blender.org
o BeveledCube
v -0.434949 -0.500000 0.434949
v -0.434949 -0.434949 0.500000
v -0.500000 -0.434949 0.434949
v -0.434949 0.434949 0.500000
v -0.434949 0.500000 0.434949
v -0.500000 0.434949 0.434949
v -0.434949 -0.500000 -0.434949
v -0.500000 -0.434949 -0.434949
v -0.434949 -0.434949 -0.500000
v -0.434949 0.500000 -0.434949
v -0.434949 0.434949 -0.500000
v -0.500000 0.434949 -0.434949
v 0.434949 -0.500000 0.434949
v 0.500000 -0.434949 0.434949
v 0.434949 -0.434949 0.500000
v 0.434949 0.500000 0.434949
v 0.434949 0.434949 0.500000
v 0.500000 0.434949 0.434949
v 0.434949 -0.500000 -0.434949
v 0.434949 -0.434949 -0.500000
v 0.500000 -0.434949 -0.434949
v 0.434949 0.500000 -0.434949
v 0.500000 0.434949 -0.434949
v 0.434949 0.434949 -0.500000
vn -0.0000 -0.0000 1.0000
vn 1.0000 -0.0000 -0.0000
vn -0.0000 1.0000 -0.0000
vn -1.0000 -0.0000 -0.0000
vn -0.0000 -0.0000 -1.0000
vn -0.5774 -0.5774 0.5774
vn -0.5774 0.5774 0.5774
vn -0.5774 -0.5774 -0.5774
vn -0.5774 0.5774 -0.5774
vn 0.5774 -0.5773 0.5774
vn 0.5774 0.5773 0.5774
vn 0.5774 -0.5773 -0.5774
vn 0.5774 0.5773 -0.5774
vn -0.7071 -0.7071 -0.0000
vn -0.7071 -0.0000 0.7071
vn -0.7071 0.7071 -0.0000
vn -0.7071 -0.0000 -0.7071
vn -0.0000 -0.7071 -0.7071
vn -0.0000 0.7071 -0.7071
vn 0.7071 -0.0000 -0.7071
vn 0.7071 -0.7071 -0.0000
vn 0.7071 0.7071 -0.0000
vn 0.7071 -0.0000 0.7071
vn -0.0000 -0.7071 0.7071
vn -0.0000 0.7071 0.7071
vn -0.0000 -1.0000 -0.0000
vt 0.391263 0.766263
vt 0.608737 0.766263
vt 0.608737 0.983737
vt 0.391263 0.983737
vt 0.391263 0.516263
vt 0.608737 0.516263
vt 0.608737 0.733737
vt 0.391263 0.733737
vt 0.641263 0.516263
vt 0.858737 0.516263
vt 0.858737 0.733737
vt 0.641263 0.733737
vt 0.391263 0.016263
vt 0.608737 0.016263
vt 0.608737 0.233737
vt 0.391263 0.233737
vt 0.391263 0.266263
vt 0.608737 0.266263
vt 0.608737 0.483737
vt 0.391263 0.483737
vt 0.141263 0.733737
vt 0.141263 0.750000
vt 0.125000 0.733737
vt 0.608737 0.000000
vt 0.625000 0.016263
vt 0.141263 0.516263
vt 0.125000 0.516263
vt 0.141263 0.500000
vt 0.625000 0.233737
vt 0.608737 0.250000
vt 0.358737 0.733737
vt 0.375000 0.733737
vt 0.358737 0.750000
vt 0.625000 0.766263
vt 0.608737 0.750000
vt 0.358737 0.516263
vt 0.358737 0.500000
vt 0.375000 0.516263
vt 0.625000 0.483737
vt 0.608737 0.500000
vt 0.391263 0.000000
vt 0.625000 0.266263
vt 0.625000 0.983737
s 0
f 15/1/1 17/2/1 4/3/1 2/4/1
f 21/5/2 23/6/2 18/7/2 14/8/2
f 22/9/3 10/10/3 5/11/3 16/12/3
f 3/13/4 6/14/4 12/15/4 8/16/4
f 9/17/5 11/18/5 24/19/5 20/20/5
f 1/21/6 2/22/6 3/23/6
f 4/24/7 5/25/7 6/14/7
f 7/26/8 8/27/8 9/28/8
f 10/29/9 11/30/9 12/15/9
f 13/31/10 14/32/10 15/33/10
f 16/34/11 17/2/11 18/35/11
f 19/36/12 20/37/12 21/38/12
f 22/39/13 23/40/13 24/19/13
f 7/26/14 1/21/14 3/23/14 8/27/14
f 2/41/15 4/24/15 6/14/15 3/13/15
f 5/25/16 10/29/16 12/15/16 6/14/16
f 11/18/17 9/17/17 8/16/17 12/15/17
f 19/36/18 7/26/18 9/28/18 20/37/18
f 10/42/19 22/39/19 24/19/19 11/18/19
f 23/6/20 21/5/20 20/20/20 24/19/20
f 13/31/21 19/36/21 21/5/21 14/8/21
f 22/9/22 16/12/22 18/7/22 23/6/22
f 17/2/23 15/1/23 14/8/23 18/7/23
f 1/21/24 13/31/24 15/33/24 2/22/24
f 16/34/25 5/43/25 4/3/25 17/2/25
f 7/26/26 19/36/26 13/31/26 1/21/26
